<?xml version="1.0" encoding="UTF-8"?>
<svg id="Layer_1" xmlns="http://www.w3.org/2000/svg" version="1.1" viewBox="0 0 800 800">
  <!-- Generator: Adobe Illustrator 29.0.0, SVG Export Plug-In . SVG Version: 2.1.0 Build 186)  -->
  <defs>
    <style>
      .st0 {
        fill: #fff;
      }
    </style>
  </defs>
  <path class="st0" d="M682.3,351.7c-55.5.1-109.6-17.2-154.7-49.5v225.3c0,85.4-53.1,161.9-133.1,191.8-80,29.9-170.2,7.1-226.3-57.4-56.1-64.4-66.3-156.9-25.7-232.1,40.7-75.1,123.7-117.1,208.3-105.4v113.3c-38.8-12.2-81,1.9-104.7,35-23.7,33.1-23.4,77.6.6,110.4,24.1,32.8,66.5,46.4,105.1,33.7s64.8-48.7,64.8-89.4V87.1h110.9c0,9.4.7,18.7,2.3,27.9,7.8,41.6,32.4,78.2,67.9,101.1,25,16.6,54.4,25.4,84.4,25.4v110.1Z"/>
</svg>