<?xml version="1.0" encoding="UTF-8"?>
<svg id="Layer_1" xmlns="http://www.w3.org/2000/svg" version="1.1" viewBox="0 0 800 800">
  <!-- Generator: Adobe Illustrator 29.0.0, SVG Export Plug-In . SVG Version: 2.1.0 Build 186)  -->
  <defs>
    <style>
      .st0 {
        fill: #fff;
      }
    </style>
  </defs>
  <path class="st0" d="M694.3,279.9c-.8,47.8-15.1,88-42.8,120.7-26.8,33.5-63.3,56.2-109.4,67.9-26.8,5.9-50.7,13.4-71.7,22.6-21.8,10.1-41.1,26-57.9,47.8-13.4,19.3-25.6,42.4-36.5,69.2-12.6,31-28.1,58.7-46.5,83-18.5,25.2-44.9,38.1-79.2,39-44.5-3.4-77.2-25.6-98.1-66.7-21-41.9-34-88.9-39-140.9-5.9-52-8.4-94.3-7.5-127,0-57,10.5-110.3,31.4-159.7,21.8-49.5,59.1-87.6,111.9-114.5,46.1-20.9,96.4-32.7,150.9-35.2,55.3-2.5,106.9,4.2,154.7,20.1,38.6,12.6,71.3,34,98.1,64.1,26,31,39.8,67.5,41.5,109.4Z"/>
</svg>