<?xml version="1.0" encoding="UTF-8"?>
<svg id="Layer_1" xmlns="http://www.w3.org/2000/svg" version="1.1" viewBox="0 0 800 800">
  <!-- Generator: Adobe Illustrator 29.0.0, SVG Export Plug-In . SVG Version: 2.1.0 Build 186)  -->
  <defs>
    <style>
      .st0 {
        fill: #fff;
      }
    </style>
  </defs>
  <path class="st0" d="M248,251.9h74.5c1,3.9,1.9,7.5,2.2,11.6.8,10.7,1.1,83.5-1.2,88.5s-3.9,4.3-4.2,4.3h-71.3v162.9c0,1.7,6.5,9.2,8.6,10.6,19.7,12.8,60.8-10.6,65.7-7.2,1.6,3.7,2.1,7.4,2.4,11.4,1.3,18.3,2.5,64-.2,80.9-2.5,15.9-30.3,22.3-44.1,26.1-57.2,16-126.4,18.7-149-47.9-2.2-6.6-6.9-21-6.9-27.1v-209.8h-35.1c-6.2,0-7.1-9.2-7.5-13.8-.9-10.4-1.1-81.4,1.2-86.3s3.9-4.3,4.2-4.3h34.1l3.2-3.2v-70.3c0-3.4,7.3-9.2,10.6-10.7,15.3-6.7,77.3-25.9,93.2-28.2,8.6-1.2,19.7.2,19.7,11.2v101.2h0Z"/>
  <path class="st0" d="M685.7,122l-263.5.5h0c-18.5,2.7-28.7,16.1-29.4,34.5v483.6c1.9,22.5,12.6,33.2,35.1,35.1,81.6,7,173-5.4,255.7,0,20.6-.4,34.7-14.4,35.1-35.1V157c-.9-20.6-12.6-32.9-33.1-35ZM675.6,510c-3.8,20.5-13.2,36.8-26.2,49.5-51,49.9-158.8,44-216.1,12.9v-71.3s0,0,0,0h0s0,0,0,0h0c0,0,0,0,0,0,3.4-2.6,33.8,12.5,39.8,14.5,24.3,8.1,86,24.7,111.9,5.3,4.2-3.2,7.5-7.3,9.5-12.6,18.8-49.7-58.3-69.1-90.4-87.6-47.6-27.5-77.3-68.9-64.1-126.6,4.6-20.3,14.2-36,27.1-47.9,50.5-46.5,152.3-33.5,208.9-4.9l-25.7,61.7s0,0,0,0h0c-28.8-12.1-105.8-37.1-126.9-5.5-4.1,6.3-6.1,14.7-5,25.9,1.3,13.8,13,24.2,27.4,32.6,10.2,4.8,23.7,10.5,41.5,19.7,2.1,1,4.1,2,5.9,2.9,54.5,29.1,95.4,62.9,82.5,131.5Z"/>
</svg>