<?xml version="1.0" encoding="UTF-8"?>
<svg id="Layer_1" xmlns="http://www.w3.org/2000/svg" version="1.1" viewBox="0 0 800 800">
  <!-- Generator: Adobe Illustrator 29.0.0, SVG Export Plug-In . SVG Version: 2.1.0 Build 186)  -->
  <defs>
    <style>
      .st0 {
        fill: #fff;
      }
    </style>
  </defs>
  <path class="st0" d="M330.1,230.7l-11.4,54.8-52.4,3.7-9.8,29.8h136.1l31.3,165.6,27.6-165.6,80.5.4,28,165.2,31.3-165.6h80.9l-55.2,250.2-91.8-.2-29.6-176.4-37.3,176.1-88-1.1-56.9-241.2c-8.2-3-5,7.8-6,12.3-2.6,11.7-4.9,23.5-7.2,35.2l-56.8,3.9-38.5,191.5h-77.3l40.5-193.1-33.2-1.9,9.1-51.7,34.6-4c6.5-28,12.3-60.5,39.7-76.2,5.2-3,31.8-11.6,36.2-11.6h75.4Z"/>
</svg>