<?xml version="1.0" encoding="UTF-8"?>
<svg id="Layer_1" xmlns="http://www.w3.org/2000/svg" version="1.1" viewBox="0 0 800 800">
  <!-- Generator: Adobe Illustrator 29.6.1, SVG Export Plug-In . SVG Version: 2.1.1 Build 9)  -->
  <defs>
    <style>
      .st0 {
        fill: #f40407;
      }

      .st1 {
        fill: #fff;
      }
    </style>
  </defs>
  <rect class="st1" x="283" y="283" width="284" height="272"/>
  <path class="st0" d="M475.62,81.63c62.9-32.78,140.79-8.9,173.9,53.35,33.11,62.25,8.96,139.27-53.95,172.05l-51.72,27.19c44.56,1.63,87.06,26.11,109.31,67.95,33.11,62.25,9.01,139.27-53.95,172.05l-275.83,144.91c-62.9,32.78-140.79,8.9-173.9-53.35-33.11-62.25-8.96-139.27,53.95-172.05l51.72-27.19c-44.56-1.63-87.06-26.11-109.31-67.95-33.11-62.25-8.96-139.27,53.95-172.05,0,0,275.83-144.91,275.83-144.91ZM326.74,297.76l166.95,103.07-166.95,102.58s0-205.65,0-205.65Z"/>
  <path class="st1" d="M326.74,297.76v205.65l166.95-102.58-166.95-103.07Z"/>
</svg>