<?xml version="1.0" encoding="UTF-8"?>
<svg id="Layer_1" xmlns="http://www.w3.org/2000/svg" version="1.1" xmlns:xlink="http://www.w3.org/1999/xlink" viewBox="0 0 800 800">
  <!-- Generator: Adobe Illustrator 29.0.0, SVG Export Plug-In . SVG Version: 2.1.0 Build 186)  -->
  <defs>
    <style>
      .st0 {
        fill: url(#linear-gradient2);
      }

      .st1 {
        fill: #fff;
      }

      .st2 {
        mask: url(#mask);
      }

      .st3 {
        fill: url(#linear-gradient1);
      }

      .st4 {
        fill: url(#linear-gradient4);
      }

      .st5 {
        fill: #ff4800;
      }

      .st6 {
        fill: url(#linear-gradient3);
      }

      .st7 {
        fill: url(#linear-gradient);
      }
    </style>
    <linearGradient id="linear-gradient" x1="399.1" y1="810.1" x2="399.1" y2="-83.5" gradientTransform="translate(0 800) scale(1 -1)" gradientUnits="userSpaceOnUse">
      <stop offset=".3" stop-color="#00adff"/>
      <stop offset="1" stop-color="#1542ff"/>
    </linearGradient>
    <mask id="mask" x="152.6" y="181.1" width="493" height="481.8" maskUnits="userSpaceOnUse">
      <g id="mask0_131_34">
        <path class="st1" d="M399.1,662.5c133,0,240.9-107.8,240.9-240.7s-107.8-240.7-240.9-240.7-240.9,107.8-240.9,240.7,107.8,240.7,240.9,240.7Z"/>
      </g>
    </mask>
    <linearGradient id="linear-gradient1" x1="399" y1="377" x2="399" y2="55.8" gradientTransform="translate(0 800) scale(1 -1)" gradientUnits="userSpaceOnUse">
      <stop offset="0" stop-color="#fce3ad"/>
      <stop offset="0" stop-color="#fce2a4"/>
      <stop offset=".2" stop-color="#fce08b"/>
      <stop offset=".3" stop-color="#fcdd64"/>
      <stop offset=".5" stop-color="#fcda32"/>
      <stop offset=".7" stop-color="#f9bc22"/>
      <stop offset="1" stop-color="#f57700"/>
    </linearGradient>
    <linearGradient id="linear-gradient2" x1="399.1" y1="294.8" x2="399.1" y2="112.3" gradientTransform="translate(0 800) scale(1 -1)" gradientUnits="userSpaceOnUse">
      <stop offset="0" stop-color="#fcd619"/>
      <stop offset=".3" stop-color="#f9b811"/>
      <stop offset="1" stop-color="#f57700"/>
    </linearGradient>
    <linearGradient id="linear-gradient3" x1="399.1" y1="203.5" x2="399.1" y2="119.4" gradientTransform="translate(0 800) scale(1 -1)" gradientUnits="userSpaceOnUse">
      <stop offset="0" stop-color="#f57700"/>
      <stop offset="1" stop-color="#ff4800"/>
    </linearGradient>
    <linearGradient id="linear-gradient4" x1="399.1" y1="704.2" x2="399.1" y2="279.8" gradientTransform="translate(0 800) scale(1 -1)" gradientUnits="userSpaceOnUse">
      <stop offset="0" stop-color="#e4e4e4"/>
      <stop offset=".9" stop-color="#b6b8b8"/>
    </linearGradient>
  </defs>
  <path class="st7" d="M470.6,150l15.3,29.8c101.5,36.4,171.2,134.3,171.2,242.7s-115.7,257.8-258,257.8-257.9-115.6-257.9-257.8,69.7-206.3,171.2-242.7l15.3-29.7c-122.9,32.1-210.4,144-210.4,272.4s126.5,281.7,281.8,281.7,281.8-126.4,281.8-281.7-87.5-240.3-210.4-272.4Z"/>
  <g class="st2">
    <g>
      <path class="st3" d="M640.5,416.1c-1.4,18.3-29.7,94.4-64.5,94.4s-17.3-20.7-19.6-36c-6.3,24.5-49.5,77.5-81.5,77.5-58.3,0-71.8-122.8-75.8-139.2-4,16.3-17.5,139.2-75.8,139.2s-75.3-52.9-81.5-77.5c-2.3,15.4-5.4,36-19.6,36-34.8,0-63.1-76.1-64.5-94.4-7.5,11-7.3,55.5,3.7,84,37,95.1,129.5,162.7,237.6,162.7s200.6-67.6,237.6-162.7c11.1-28.5,11.2-73,3.7-84h.1Z"/>
      <path class="st0" d="M399.1,552.2c9.6,17.6,30.5,44,66.3,44s63.7-36.9,73-52.5c-3,11-9,34.4,10.5,34.4,44.7,0,77-70.6,77-70.6-35.3,90.8-123.6,155.3-226.8,155.3s-191.5-64.5-226.8-155.3c0,0,32.3,70.6,77,70.6s13.4-23.5,10.5-34.4c9.3,15.6,36.3,52.5,73,52.5s56.7-26.4,66.3-44Z"/>
      <path class="st6" d="M455.9,631.5c-22,0-39.1-6.8-56.8-17.8-17.7,11-34.8,17.8-56.8,17.8-33.5,0-43.7-9.9-55.8-18.9.3,11.5,12.1,27.8,24.2,33.7,27,11.9,57.2,16.6,88.4,16.6s61.4-4.8,88.4-16.6c12.1-5.9,23.8-22.1,24.2-33.7-12.1,9-22.3,18.9-55.8,18.9Z"/>
    </g>
  </g>
  <path class="st5" d="M366.6,304.9l-34.6,73.2c-1.4,3-1.9,6.4-1.4,9.7l11,66.2c.3,2.1,3.5,2.1,3.8,0l5.9-36.1c2.4-15,10.4-28.5,22.3-37.9l-7.1-75.2h0Z"/>
  <path class="st5" d="M431.7,304.9l34.6,73.2c1.4,3,1.9,6.4,1.4,9.7l-11,66.2c-.3,2.1-3.4,2.1-3.8,0l-5.9-36.1c-2.4-15-10.4-28.5-22.3-37.9l7.1-75.2h0Z"/>
  <path class="st4" d="M450.2,190l-47.4-91.9c-1.5-3-5.8-3-7.3,0l-47.4,91.9c-2,3.8-2.7,8.1-2.1,12.3l23.9,167.9-3.6,15.7,12.6,34.6c.3.8,1,1.3,1.8,1.3h36.7c.8,0,1.5-.5,1.8-1.3l12.6-34.6-3.6-15.7,23.9-167.9c.6-4.2-.1-8.5-2.1-12.3h.2Z"/>
  <path class="st5" d="M397.5,342.5l-16.8,41.6c-2.6,6.4-3.1,13.6-1.4,20.3l18,71.9c.5,2,3.3,2,3.8,0l18-71.9c1.7-6.7,1.2-13.8-1.4-20.3l-16.8-41.6c-.6-1.5-2.7-1.5-3.3,0h0Z"/>
</svg>